<svg width="225" height="225" viewBox="0 0 225 225" fill="none" xmlns="http://www.w3.org/2000/svg">
<path d="M68.784 144.841L36.4353 112.492L68.784 80.1429C74.6794 74.247 74.6794 64.6973 68.784 58.8019C62.8963 52.9069 53.3389 52.9069 47.4444 58.8019L4.4211 101.821C1.5914 104.651 0 108.49 0 112.492C0 116.494 1.5914 120.332 4.4211 123.162L47.4444 166.181C50.3916 169.128 54.2528 170.603 58.1144 170.603C61.9756 170.603 65.8404 169.128 68.784 166.181C74.6794 160.286 74.6794 150.736 68.784 144.841Z" fill="#293820"/>
<path d="M220.578 101.821L177.556 58.8019C171.66 52.9069 162.103 52.9069 156.215 58.8019C150.32 64.6968 150.32 74.2466 156.215 80.1429L188.564 112.492L156.215 144.841C150.32 150.736 150.32 160.286 156.215 166.181C159.16 169.128 163.024 170.603 166.886 170.603C170.747 170.603 174.608 169.128 177.556 166.181L220.578 123.162C223.408 120.332 225 116.494 225 112.492C225 108.49 223.408 104.651 220.578 101.821Z" fill="#293820"/>
<path d="M146.886 26.7179C139.197 23.6008 130.358 27.2642 127.208 34.9784L68.4969 178.583C65.3433 186.298 69.0386 195.11 76.7537 198.265C78.6216 199.024 80.5561 199.392 82.4605 199.392C88.4074 199.392 94.0445 195.848 96.4322 190.005L155.143 46.4015C158.297 38.6855 154.602 29.8725 146.886 26.7179Z" fill="#293820"/>
</svg>
