<svg width="223" height="223" viewBox="0 0 223 223" fill="none" xmlns="http://www.w3.org/2000/svg">
<g clip-path="url(#clip0)">
<path d="M125.813 154.595C121.844 157.029 116.761 158.37 111.5 158.37C106.239 158.37 101.156 157.03 97.1872 154.595L32.3883 114.853C32.3883 114.853 26.5396 111.268 26.5396 119.389C26.5396 128.612 26.5396 156.279 26.5396 156.279C26.5396 156.648 26.5396 158.5 26.5396 159.074C26.5396 179.98 64.577 202.517 111.498 202.517C158.42 202.517 196.457 179.98 196.457 159.074C196.457 158.5 196.457 156.648 196.457 156.279C196.457 156.279 196.457 126.934 196.457 117.152C196.457 110.633 192.299 113.818 192.299 113.818L125.813 154.595Z" fill="#293820"/>
<path d="M219.266 83.2412C224.245 80.1877 224.245 75.1908 219.266 72.1367L120.553 22.774C115.574 19.7205 107.426 19.7205 102.447 22.774L3.73427 72.1367C-1.24476 75.1902 -1.24476 80.1871 3.73427 83.2412L102.447 143.783C107.426 146.836 115.574 146.836 120.553 143.783" fill="#293820"/>
<path d="M215.183 172.978C215.183 156.262 215.183 106.115 215.183 106.115C215.183 106.115 215.23 102.948 213.35 103.993C211.843 104.832 208.148 106.892 206.846 108.025C205.343 109.331 205.682 112.263 205.682 112.263C205.682 112.263 205.682 157.799 205.682 172.978C205.682 173.84 204.941 174.251 204.588 174.459C201.176 176.465 198.881 180.168 198.881 184.413C198.881 190.793 204.053 195.965 210.433 195.965C216.813 195.965 221.984 190.793 221.984 184.413C221.984 180.152 219.673 176.437 216.239 174.436C215.897 174.237 215.183 173.839 215.183 172.978Z" fill="#293820"/>
</g>
<defs>
<clipPath id="clip0">
<rect width="223" height="223" fill="white"/>
</clipPath>
</defs>
</svg>
