<svg width="553" height="206" viewBox="0 0 553 206" fill="none" xmlns="http://www.w3.org/2000/svg">
<g clip-path="url(#clip0)">
<path d="M285.4 68L311.7 66.3C312.3 70.6 313.4 73.8 315.2 76.1C318.1 79.7 322.1 81.5 327.4 81.5C331.3 81.5 334.4 80.6 336.5 78.7C338.5 77.2 339.7 74.8 339.7 72.3C339.7 69.9 338.6 67.6 336.7 66.1C334.7 64.3 330 62.5 322.6 60.9C310.5 58.2 301.8 54.6 296.7 50C291.6 45.7 288.7 39.4 288.9 32.7C288.9 28.1 290.3 23.5 292.9 19.7C295.9 15.4 300 12 304.9 10.1C310.2 7.80001 317.6 6.60001 326.9 6.60001C338.3 6.60001 347 8.70001 353 13C359 17.2 362.6 24 363.7 33.3L337.7 34.8C337 30.8 335.6 27.9 333.3 26C331 24.1 328 23.2 324.1 23.2C320.9 23.2 318.5 23.9 316.9 25.2C315.4 26.4 314.4 28.2 314.5 30.2C314.5 31.7 315.3 33.1 316.5 34C317.8 35.2 320.9 36.3 325.8 37.3C337.9 39.9 346.5 42.5 351.8 45.2C357.1 47.9 360.9 51.2 363.2 55.1C365.6 59.1 366.8 63.7 366.7 68.4C366.7 74 365.1 79.6 361.9 84.3C358.6 89.2 354 93 348.6 95.3C342.9 97.8 335.7 99.1 327.1 99.1C311.9 99.1 301.4 96.2 295.5 90.3C289.6 84.4 286.1 77 285.4 68ZM6.3 97.6V8.20001H52.4C60.9 8.20001 67.5 8.90001 72 10.4C76.4 11.8 80.3 14.7 82.9 18.6C85.8 22.9 87.2 27.9 87.1 33.1C87.4 41.9 82.9 50.3 75.2 54.7C72.2 56.4 68.9 57.6 65.5 58.2C68 58.9 70.5 60.1 72.7 61.5C74.4 62.9 75.8 64.5 77.1 66.2C78.6 67.9 79.9 69.8 81 71.8L94.4 97.7H63L48.2 70.2C46.3 66.7 44.7 64.4 43.2 63.3C41.2 61.9 38.8 61.2 36.4 61.2H34V97.5H6.3V97.6ZM34 44.4H45.7C48.2 44.2 50.6 43.8 53 43.2C54.8 42.9 56.4 41.9 57.5 40.4C60.2 36.8 59.8 31.7 56.5 28.6C54.7 27.1 51.2 26.3 46.2 26.3H34V44.4ZM0 174.2L26.3 172.5C26.9 176.8 28 180 29.8 182.3C32.6 185.9 36.7 187.8 42 187.8C45.9 187.8 49 186.9 51.1 185C53.1 183.4 54.3 181.1 54.3 178.6C54.3 176.2 53.2 173.9 51.3 172.4C49.3 170.6 44.6 168.8 37.1 167.2C25 164.5 16.3 160.9 11.2 156.3C6.1 152 3.2 145.7 3.4 139C3.4 134.4 4.8 129.8 7.4 126C10.4 121.7 14.5 118.3 19.4 116.4C24.7 114.1 32.1 112.9 41.4 112.9C52.8 112.9 61.5 115 67.5 119.3C73.5 123.6 77 130.3 78.1 139.6L52.1 141.1C51.4 137.1 50 134.2 47.7 132.3C45.5 130.4 42.4 129.5 38.5 129.6C35.3 129.6 32.9 130.3 31.3 131.7C29.7 132.9 28.8 134.7 28.9 136.7C28.9 138.2 29.7 139.6 30.9 140.5C32.2 141.7 35.3 142.8 40.2 143.8C52.3 146.4 60.9 149 66.2 151.7C71.5 154.4 75.3 157.7 77.6 161.6C80 165.6 81.2 170.2 81.2 174.8C81.2 180.4 79.5 185.9 76.4 190.6C73.1 195.5 68.5 199.3 63.1 201.6C57.4 204.1 50.2 205.4 41.6 205.4C26.4 205.4 15.9 202.5 10 196.6C4.1 190.6 0.8 183.2 0 174.2H0Z" fill="white"/>
<path d="M133 167.2L157.2 174.5C155.9 180.6 153.2 186.4 149.5 191.5C146.1 196 141.6 199.5 136.5 201.8C131.3 204.1 124.7 205.3 116.7 205.3C107 205.3 99 203.9 92.9 201.1C86.7 198.3 81.4 193.3 76.9 186.2C72.4 179.1 70.2 170 70.2 158.9C70.2 144.1 74.1 132.7 82 124.8C89.9 116.9 101 112.9 115.4 112.9C126.7 112.9 135.5 115.2 142 119.7C148.4 124.3 153.2 131.3 156.4 140.7L132 146.1C131.4 144 130.5 141.9 129.3 140.1C127.8 138 125.9 136.4 123.6 135.2C121.3 134 118.7 133.5 116.1 133.5C109.8 133.5 105 136 101.7 141.1C99.2 144.8 97.9 150.7 97.9 158.7C97.9 168.6 99.4 175.4 102.4 179.1C105.4 182.8 109.6 184.6 115.1 184.6C120.4 184.6 124.4 183.1 127.1 180.2C129.8 177.1 131.8 172.8 133 167.2ZM189.5 114.4H217.1V145.7H247.3V114.4H275.1V203.8H247.3V167.6H217.1V203.8H189.5V114.4V114.4Z" fill="white"/>
<path d="M271.3 159.1C271.3 144.5 275.4 133.1 283.5 125C291.6 116.9 303 112.8 317.5 112.8C332.4 112.8 343.8 116.8 351.9 124.8C360 132.8 364 144 364 158.4C364 168.9 362.2 177.4 358.7 184.1C355.3 190.7 350 196.1 343.5 199.7C336.8 203.4 328.5 205.3 318.6 205.3C308.5 205.3 300.2 203.7 293.6 200.5C286.8 197.1 281.2 191.8 277.5 185.3C273.4 178.3 271.3 169.6 271.3 159.1ZM298.9 159.2C298.9 168.2 300.6 174.7 303.9 178.7C307.2 182.6 311.8 184.6 317.6 184.6C323.5 184.6 328.1 182.7 331.4 178.8C334.7 174.9 336.3 168 336.3 158C336.3 149.6 334.6 143.4 331.2 139.6C327.8 135.7 323.2 133.8 317.4 133.8C312.3 133.6 307.4 135.8 304 139.7C300.6 143.6 298.9 150.1 298.9 159.2V159.2ZM392.3 159.1C392.3 144.5 396.4 133.1 404.5 125C412.6 116.9 424 112.8 438.5 112.8C453.4 112.8 464.9 116.8 472.9 124.8C480.9 132.8 485 144 485 158.4C485 168.9 483.2 177.4 479.7 184.1C476.3 190.7 471 196.1 464.5 199.7C457.8 203.4 449.5 205.3 439.6 205.3C429.5 205.3 421.2 203.7 414.6 200.5C407.8 197.1 402.2 191.8 398.5 185.3C394.4 178.3 392.3 169.6 392.3 159.1V159.1ZM419.9 159.2C419.9 168.2 421.6 174.7 424.9 178.7C428.2 182.6 432.8 184.6 438.6 184.6C444.5 184.6 449.1 182.7 452.4 178.8C455.7 174.9 457.3 168 457.3 158C457.3 149.6 455.6 143.4 452.2 139.6C448.8 135.7 444.2 133.8 438.4 133.8C433.3 133.6 428.3 135.8 425 139.7C421.6 143.6 419.9 150.1 419.9 159.2V159.2Z" fill="white"/>
<path d="M482.1 114.4H509.7V181.8H552.8V203.8H482V114.4H482.1Z" fill="white"/>
<path d="M451.679 109.241C479.466 88.3007 488.035 52.804 470.817 29.9567C453.6 7.10932 417.117 5.56311 389.329 26.5031C361.542 47.4431 352.973 82.9398 370.191 105.787C387.408 128.634 423.891 130.181 451.679 109.241Z" fill="white"/>
<path d="M299.325 56.5406L442.918 -51.6683L542.28 80.1847L398.687 188.394L299.325 56.5406Z" fill="white"/>
<path d="M451.679 109.241C479.466 88.3007 488.035 52.804 470.817 29.9567C453.6 7.10932 417.117 5.56311 389.329 26.5031C361.542 47.4431 352.973 82.9398 370.191 105.787C387.408 128.634 423.891 130.181 451.679 109.241Z" fill="white"/>
<path d="M339.31 65.3448L439.859 -10.4237L502.267 72.3948L401.719 148.163L339.31 65.3448Z" fill="white"/>
<path d="M451.679 109.241C479.466 88.3007 488.035 52.804 470.817 29.9567C453.6 7.10932 417.117 5.56311 389.329 26.5031C361.542 47.4431 352.973 82.9398 370.191 105.787C387.408 128.634 423.891 130.181 451.679 109.241Z" fill="white" stroke="black" stroke-width="4" stroke-miterlimit="10"/>
<path d="M339.31 65.3448L439.859 -10.4237L502.267 72.3948L401.719 148.163L339.31 65.3448Z" stroke="black" stroke-width="4" stroke-miterlimit="10"/>
<path d="M451.679 109.241C479.466 88.3007 488.035 52.804 470.817 29.9567C453.6 7.10932 417.117 5.56311 389.329 26.5031C361.542 47.4431 352.973 82.9398 370.191 105.787C387.408 128.634 423.891 130.181 451.679 109.241Z" stroke="black" stroke-width="4" stroke-miterlimit="10"/>
<path d="M339.31 65.3448L439.859 -10.4237L502.267 72.3948L401.719 148.163L339.31 65.3448Z" fill="white"/>
<path d="M451.679 109.241C479.466 88.3007 488.035 52.804 470.817 29.9567C453.6 7.10932 417.117 5.56311 389.329 26.5031C361.542 47.4431 352.973 82.9398 370.191 105.787C387.408 128.634 423.891 130.181 451.679 109.241Z" fill="white" stroke="black" stroke-width="4" stroke-miterlimit="10"/>
<path d="M339.31 65.3448L439.859 -10.4237L502.267 72.3948L401.719 148.163L339.31 65.3448Z" stroke="black" stroke-width="4" stroke-miterlimit="10"/>
<path d="M299.325 56.5406L442.918 -51.6683L542.28 80.1847L398.687 188.394L299.325 56.5406Z" stroke="black" stroke-width="4" stroke-miterlimit="10"/>
<path d="M451.679 109.241C479.466 88.3007 488.035 52.804 470.817 29.9567C453.6 7.10932 417.117 5.56311 389.329 26.5031C361.542 47.4431 352.973 82.9398 370.191 105.787C387.408 128.634 423.891 130.181 451.679 109.241Z" stroke="black" stroke-width="4" stroke-miterlimit="10"/>
<path d="M439.657 39.9588L433.022 45.1931C430.621 43.2281 427.048 43.0056 424.476 45.0187L424.404 45.0749L424.339 45.1394L424.161 45.3175C422.932 46.1072 422.078 47.25 421.593 48.581C421.084 49.9457 421.458 51.362 422.179 52.3719L422.203 52.4051L422.229 52.437C422.801 53.1524 423.76 53.8651 425.008 53.8988C425.685 53.9635 426.433 53.8256 427.162 53.6173C427.952 53.3915 428.869 53.0383 429.898 52.5757C434.855 50.4949 438.514 49.3539 440.928 48.9826L440.948 48.9795L440.968 48.9758C442.903 48.624 444.902 48.8042 446.709 49.5787L446.709 49.5787L446.718 49.5825C448.322 50.2577 449.693 51.4503 450.641 52.9149L450.655 52.9378L450.671 52.9602C451.902 54.7181 452.612 56.838 452.701 59.0576L439.657 39.9588ZM439.657 39.9588C437.43 37.9 435.182 37 432.9 37C430.127 37 426.726 38.2213 422.652 41.0343L422.632 41.0484L422.611 41.0618C419.994 42.7444 417.832 44.8998 416.033 47.4549C414.94 49.0556 414.407 51.0308 414.4 53.0624C414.493 54.8049 415.018 56.5076 416.025 57.935L416.045 57.9628L416.063 57.9914C417.39 60.065 419.657 61.3488 422.152 61.6077C424.793 61.8712 428.522 61.1743 433.524 59.1148C435.116 58.4477 436.485 57.971 437.637 57.6729C438.744 57.3863 439.737 57.2413 440.569 57.3009C441.094 57.3142 441.57 57.4746 441.826 57.5606C441.843 57.5664 441.859 57.5719 441.874 57.577C444.45 58.4354 445.873 61.2651 445.033 63.8426C444.506 65.6561 443.24 66.9996 441.872 67.9212C439.809 69.4805 437.229 69.9748 434.769 69.2367L434.732 69.2256L434.695 69.2126C433.487 68.781 432.349 68.1006 431.367 67.2181L424.57 72.5961C426.535 74.6007 429.052 75.9597 432.028 76.4174L432.037 76.4189L432.047 76.4204C435.045 76.9201 439.124 75.6132 444.547 71.8659L444.558 71.8588L444.568 71.8519C447.099 70.1648 449.254 68.0108 450.943 65.4814M439.657 39.9588L450.943 65.4814M450.943 65.4814C452.178 63.5343 452.788 61.3395 452.701 59.06L450.943 65.4814ZM393.44 93.8511L399.791 87.9427C400.359 88.6158 400.99 89.2328 401.663 89.7713L401.695 89.7968L401.728 89.8206C402.646 90.4759 403.745 90.9 405 90.9C406.061 90.9 407.048 90.4757 407.758 89.9334C409.147 89.057 410.144 87.3712 409.995 85.5754L409.989 85.507L409.977 85.4393C409.645 83.5545 408.867 81.6157 407.588 80.0817L394.498 61.6625L402.034 56.3874L413.473 72.6625L413.486 72.6815L413.5 72.7C415.496 75.3613 417.021 78.2121 418.17 81.3578C418.757 83.5012 418.585 85.8305 417.719 87.9134C416.536 90.6389 414.633 92.9027 412.089 94.5382L412.065 94.5534L412.042 94.5694C408.828 96.8095 406.241 97.9724 404.153 98.3204L404.153 98.3204L404.143 98.3222C402.193 98.6614 400.108 98.3324 398.146 97.4458C396.349 96.5437 394.751 95.344 393.44 93.8511Z" fill="white" stroke="black" stroke-width="3"/>
</g>
<defs>
<clipPath id="clip0">
<rect width="552.8" height="205.3" fill="white"/>
</clipPath>
</defs>
</svg>
