<svg width="171" height="171" viewBox="0 0 171 171" fill="none" xmlns="http://www.w3.org/2000/svg">
<g clip-path="url(#clip0)">
<path d="M85.5 0C63.3879 0 45.4877 17.9002 45.4877 40.0123C45.4877 62.1244 63.3879 80.0246 85.5 80.0246C107.612 80.0246 125.512 62.1244 125.512 40.0123C125.512 17.9002 107.612 0 85.5 0Z" fill="#293820"/>
<path d="M101.084 84.6577H69.9162C38.5382 84.6577 13.0566 110.139 13.0566 141.517V164.682C13.0566 168.262 15.7943 171 19.3744 171H151.626C155.206 171 157.943 168.262 157.943 164.682V141.517C157.943 110.139 132.462 84.6577 101.084 84.6577Z" fill="#293820"/>
</g>
<defs>
<clipPath id="clip0">
<rect width="171" height="171" fill="white"/>
</clipPath>
</defs>
</svg>
