<svg width="244" height="244" viewBox="0 0 244 244" fill="none" xmlns="http://www.w3.org/2000/svg">
<g clip-path="url(#clip0)">
<path d="M152.5 66.0833C146.888 66.0833 142.333 61.5286 142.333 55.9166V40.6666H101.667V55.9166C101.667 61.5286 97.112 66.0833 91.5 66.0833C85.888 66.0833 81.3334 61.5286 81.3334 55.9166V40.6666C81.3334 29.4528 90.4529 20.3333 101.667 20.3333H142.333C153.547 20.3333 162.667 29.4528 162.667 40.6666V55.9166C162.667 61.5286 158.112 66.0833 152.5 66.0833Z" fill="#293820"/>
<path d="M129.218 156.363C127.388 157.075 124.745 157.583 122 157.583C119.255 157.583 116.612 157.075 114.172 156.16L0 118.137V195.708C0 211.162 12.505 223.667 27.9583 223.667H216.042C231.495 223.667 244 211.162 244 195.708V118.137L129.218 156.363Z" fill="#293820"/>
<path d="M244 78.7916V102.073L124.44 141.927C123.627 142.232 122.813 142.333 122 142.333C121.187 142.333 120.373 142.232 119.56 141.927L0 102.073V78.7916C0 63.3383 12.505 50.8333 27.9583 50.8333H216.042C231.495 50.8333 244 63.3383 244 78.7916V78.7916Z" fill="#293820"/>
</g>
<defs>
<clipPath id="clip0">
<rect width="244" height="244" fill="white"/>
</clipPath>
</defs>
</svg>
